#!OML:ASF H:\Pregnant\Project 1\Capture day 1\Session 1\femalepreg.ASF
:FULLY-SPECIFIED
:DEGREES
2551
root 2.70792 15.9902 28.0433 -1326.01 -97.3668 1346.08
lowerback -11.8952 2.05902 12.3256
upperback -6.46597 1.02562 2.80824
thorax -0.034228 0.0798427 -3.82704
lowerneck -8.4645 14.3298 14.2478
upperneck 30.2528 21.028 -11.4011
head 14.7259 9.39881 -3.40233
rclavicle 3.8763e-015 -2.54444e-014
rhumerus -27.8608 5.41061 -79.8521
rradius 27.9185
rwrist -16.5561
rhand -23.9232 -26.6908
rfingers 7.12502
rthumb 2.55155 -56.6553
lclavicle 3.8763e-015 -2.54444e-014
lhumerus -45.9939 5.35884 68.634
lradius 32.9688
lwrist 35.6523
lhand -13.1728 -2.60561
lfingers 7.12502
lthumb 12.9266 26.974
rfemur -34.048 12.4312 8.14722
rtibia 34.4554
rfoot -14.5263 -20.6485
rtoes -6.04766
lfemur -32.4358 -8.43411 -8.891
ltibia 22.1996
lfoot 0.406765 2.75315
ltoes -26.8376
2552
root 2.69421 15.9912 28.0769 -1326.06 -97.1274 1346.07
lowerback -11.9098 2.03816 12.2471
upperback -6.42994 1.00186 2.83565
thorax 0.00858083 0.0747872 -3.75769
lowerneck -8.4703 14.3115 14.1748
upperneck 30.2844 20.9496 -11.2186
head 14.6889 9.37634 -3.33662
rclavicle -1.0635e-014 2.54444e-014
rhumerus -28.1761 5.14689 -79.5863
rradius 27.7038
rwrist -16.3098
rhand -23.8952 -26.5925
rfingers 7.12502
rthumb 2.57853 -56.5566
lclavicle -1.0635e-014 2.54444e-014
lhumerus -45.8274 5.40651 68.543
lradius 33.3787
lwrist 35.6197
lhand -13.2791 -2.71657
lfingers 7.12502
lthumb 12.8242 26.8695
rfemur -33.7442 12.5308 8.28657
rtibia 34.0989
rfoot -14.3691 -20.6717
rtoes -6.32742
lfemur -32.0505 -8.40948 -8.2058
ltibia 21.7962
lfoot 0.661466 3.06996
ltoes -26.6511
2553
root 2.6807 15.9916 28.1132 -1325.7 -96.8983 1345.67
lowerback -11.937 2.00106 12.1749
upperback -6.39991 0.954533 2.86238
thorax 0.0481747 0.0573241 -3.69533
lowerneck -8.48693 14.2935 14.09
upperneck 30.3053 20.8717 -11.0347
head 14.6479 9.35286 -3.26771
rclavicle -1.49089e-014 -3.18055e-015
rhumerus -28.5007 4.94355 -79.324
rradius 27.5045
rwrist -16.1018
rhand -23.8805 -26.507
rfingers 7.12502
rthumb 2.59275 -56.471
lclavicle -1.49089e-014 -3.18055e-015
lhumerus -45.6646 5.45896 68.4774
lradius 33.7978
lwrist 35.5839
lhand -13.3839 -2.84082
lfingers 7.12502
lthumb 12.7231 26.7516
rfemur -33.4416 12.5241 8.44074
rtibia 33.7595
rfoot -14.2336 -20.6439
rtoes -6.5975
lfemur -31.6956 -8.44335 -7.52944
ltibia 21.4064
lfoot 0.922317 3.43649
ltoes -26.3333
2554
root 2.66735 15.9913 28.1523 -1324.95 -96.6785 1344.87
lowerback -11.9771 1.95649 12.1173
upperback -6.37664 0.894583 2.87897
thorax 0.0858096 0.0326549 -3.65317
lowerneck -8.51763 14.2711 14.0195
upperneck 30.318 20.7871 -10.8643
head 14.6095 9.32612 -3.20661
rclavicle 1.98785e-015 6.36111e-015
rhumerus -28.8331 4.75984 -79.0658
rradius 27.3135
rwrist -15.9167
rhand -23.8716 -26.4316
rfingers 7.12502
rthumb 2.60135 -56.3955
lclavicle 1.98785e-015 6.36111e-015
lhumerus -45.496 5.48762 68.4406
lradius 34.2214
lwrist 35.5452
lhand -13.4963 -2.97596
lfingers 7.12502
lthumb 12.6148 26.6231
rfemur -33.1431 12.4535 8.59651
rtibia 33.4342
rfoot -14.122 -20.5959
rtoes -6.8395
lfemur -31.3799 -8.50594 -6.88085
ltibia 21.036
lfoot 1.22125 3.80642
ltoes -26.0672
2555
root 2.65409 15.9905 28.1935 -1323.93 -96.4605 1343.81
lowerback -12.0202 1.91273 12.0719
upperback -6.36086 0.834772 2.88447
thorax 0.117238 0.00692187 -3.62946
lowerneck -8.56319 14.2432 13.9473
upperneck 30.3254 20.6915 -10.6894
head 14.5697 9.29456 -3.1448
rclavicle -9.44227e-015 6.36111e-015
rhumerus -29.1811 4.58152 -78.8102
rradius 27.135
rwrist -15.7542
rhand -23.8726 -26.3759
rfingers 7.12502
rthumb 2.60037 -56.3398
lclavicle -9.44227e-015 6.36111e-015
lhumerus -45.3207 5.49498 68.4278
lradius 34.6443
lwrist 35.4896
lhand -13.6062 -3.11933
lfingers 7.12502
lthumb 12.5088 26.4863
rfemur -32.8471 12.3713 8.75027
rtibia 33.1162
rfoot -14.0221 -20.5563
rtoes -7.05943
lfemur -31.0917 -8.58711 -6.24969
ltibia 20.6883
lfoot 1.56103 4.18171
ltoes -25.7556
2556
root 2.64091 15.989 28.2362 -1322.76 -96.2379 1342.6
lowerback -12.0631 1.86777 12.0311
upperback -6.35256 0.773268 2.88892
thorax 0.140347 -0.0206907 -3.60965
lowerneck -8.60768 14.2112 13.8866
upperneck 30.3231 20.5938 -10.5357
head 14.5301 9.26116 -3.09359
rclavicle 6.55989e-015 -4.13472e-014
rhumerus -29.5423 4.44359 -78.5615
rradius 26.9697
rwrist -15.6325
rhand -23.874 -26.3297
rfingers 7.12502
rthumb 2.59902 -56.2936
lclavicle 6.55989e-015 -4.13472e-014
lhumerus -45.1519 5.49703 68.4367
lradius 35.0652
lwrist 35.4254
lhand -13.696 -3.25829
lfingers 7.12502
lthumb 12.4222 26.3526
rfemur -32.5544 12.2911 8.90517
rtibia 32.8007
rfoot -13.9302 -20.5213
rtoes -7.2832
lfemur -30.8223 -8.6801 -5.63232
ltibia 20.3659
lfoot 1.94292 4.54961
ltoes -25.4133
2557
root 2.62742 15.9871 28.2799 -1321.51 -96.0057 1341.31
lowerback -12.1008 1.82657 11.9877
upperback -6.35118 0.718109 2.89237
thorax 0.154315 -0.0460082 -3.58875
lowerneck -8.65523 14.1765 13.83
upperneck 30.317 20.4927 -10.387
head 14.4907 9.22617 -3.04543
rclavicle 3.57812e-015 -3.18055e-014
rhumerus -29.9152 4.2878 -78.304
rradius 26.8073
rwrist -15.4968
rhand -23.8699 -26.2923
rfingers 7.12502
rthumb 2.60304 -56.2562
lclavicle 3.57812e-015 -3.18055e-014
lhumerus -44.9864 5.47517 68.4723
lradius 35.4844
lwrist 35.3654
lhand -13.7865 -3.38435
lfingers 7.12502
lthumb 12.335 26.2318
rfemur -32.2612 12.2314 9.06295
rtibia 32.4832
rfoot -13.8456 -20.493
rtoes -7.49076
lfemur -30.5624 -8.77225 -5.02846
ltibia 20.0717
lfoot 2.35787 4.8954
ltoes -24.9997
2558
root 2.61336 15.9846 28.3245 -1320.21 -95.7631 1339.97
lowerback -12.1312 1.79556 11.9457
upperback -6.3526 0.677833 2.88811
thorax 0.163606 -0.0644057 -3.57496
lowerneck -8.71248 14.1351 13.7839
upperneck 30.309 20.3803 -10.2431
head 14.4532 9.1865 -3.0024
rclavicle -3.37934e-015 -5.08889e-014
rhumerus -30.3027 4.1103 -78.0394
rradius 26.6533
rwrist -15.3532
rhand -23.8465 -26.2626
rfingers 7.12502
rthumb 2.62561 -56.2261
lclavicle -3.37934e-015 -5.08889e-014
lhumerus -44.8107 5.41571 68.5333
lradius 35.8936
lwrist 35.3164
lhand -13.852 -3.50475
lfingers 7.12502
lthumb 12.2718 26.1152
rfemur -31.9598 12.2033 9.22476
rtibia 32.1625
rfoot -13.7554 -20.4845
rtoes -7.72853
lfemur -30.3024 -8.86194 -4.44109
ltibia 19.8071
lfoot 2.80997 5.20164
ltoes -24.4998
2559
root 2.59885 15.9816 28.3705 -1318.83 -95.5131 1338.55
lowerback -12.1604 1.76826 11.8987
upperback -6.35905 0.643161 2.887
thorax 0.16776 -0.0805042 -3.55443
lowerneck -8.77307 14.0923 13.7251
upperneck 30.2971 20.2677 -10.0975
head 14.4131 9.14554 -2.95678
rclavicle 2.78299e-015 6.36111e-015
rhumerus -30.6993 3.92837 -77.7614
rradius 26.5056
rwrist -15.1849
rhand -23.8203 -26.2449
rfingers 7.12502
rthumb 2.65087 -56.2082
lclavicle 2.78299e-015 6.36111e-015
lhumerus -44.6379 5.32778 68.6287
lradius 36.2954
lwrist 35.2885
lhand -13.9165 -3.62837
lfingers 7.12502
lthumb 12.2096 25.9953
rfemur -31.6584 12.1677 9.39286
rtibia 31.839
rfoot -13.6688 -20.4599
rtoes -7.95912
lfemur -30.0542 -8.96513 -3.86909
ltibia 19.5712
lfoot 3.3125 5.48228
ltoes -23.876
2560
root 2.58379 15.978 28.418 -1317.31 -95.2601 1337
lowerback -12.1962 1.74934 11.8507
upperback -6.3686 0.618765 2.88114
thorax 0.173768 -0.0916601 -3.53701
lowerneck -8.84954 14.0459 13.6611
upperneck 30.2844 20.1493 -9.95092
head 14.3748 9.10103 -2.91015
rclavicle 4.22417e-015 -9.54166e-015
rhumerus -31.0999 3.7077 -77.4645
rradius 26.3632
rwrist -14.9766
rhand -23.774 -26.2284
rfingers 7.12502
rthumb 2.69565 -56.1911
lclavicle 4.22417e-015 -9.54166e-015
lhumerus -44.454 5.20195 68.7548
lradius 36.6837
lwrist 35.2803
lhand -13.9725 -3.76449
lfingers 7.12502
lthumb 12.1556 25.8624
rfemur -31.3623 12.0959 9.56913
rtibia 31.5145
rfoot -13.5819 -20.4008
rtoes -8.1909
lfemur -29.8264 -9.08056 -3.31574
ltibia 19.3646
lfoot 3.86569 5.72028
ltoes -23.1188
2561
root 2.56814 15.9738 28.4669 -1315.65 -95.0031 1335.3
lowerback -12.241 1.73286 11.7949
upperback -6.37953 0.596828 2.8781
thorax 0.183688 -0.101361 -3.51198
lowerneck -8.93671 13.9995 13.5784
upperneck 30.2669 20.0319 -9.79788
head 14.3336 9.05545 -2.85738
rclavicle -1.08338e-014 1.90833e-014
rhumerus -31.5067 3.50074 -77.1593
rradius 26.2388
rwrist -14.7662
rhand -23.73 -26.2111
rfingers 7.12502
rthumb 2.73809 -56.1733
lclavicle -1.08338e-014 1.90833e-014
lhumerus -44.2667 5.06369 68.9057
lradius 37.0562
lwrist 35.2831
lhand -14.0088 -3.91365
lfingers 7.12502
lthumb 12.1206 25.7153
rfemur -31.0724 11.9962 9.75392
rtibia 31.1918
rfoot -13.4928 -20.3139
rtoes -8.4563
lfemur -29.618 -9.21996 -2.77505
ltibia 19.1862
lfoot 4.46261 5.92827
ltoes -22.2328
2562
root 2.55209 15.9689 28.5175 -1313.7 -94.7471 1333.34
lowerback -12.3006 1.71125 11.7326
upperback -6.39296 0.566353 2.87989
thorax 0.197747 -0.115154 -3.47921
lowerneck -9.03177 13.9555 13.4973
upperneck 30.2445 19.9212 -9.65742
head 14.2955 9.01127 -2.8078
rclavicle 3.8763e-015 -3.18055e-014
rhumerus -31.9099 3.29202 -76.8398
rradius 26.1217
rwrist -14.4964
rhand -23.6453 -26.1593
rfingers 7.12502
rthumb 2.81994 -56.1204
lclavicle 3.8763e-015 -3.18055e-014
lhumerus -44.0812 4.92179 69.0744
lradius 37.4124
lwrist 35.3006
lhand -14.0212 -4.0732
lfingers 7.12502
lthumb 12.1086 25.5564
rfemur -30.7931 11.8731 9.94176
rtibia 30.8732
rfoot -13.4021 -20.2152
rtoes -8.7559
lfemur -29.4411 -9.38666 -2.24644
ltibia 19.0329
lfoot 5.09173 6.08455
ltoes -21.2495
2563
root 2.53572 15.963 28.5697 -1311.44 -94.4918 1331.06
lowerback -12.3702 1.68077 11.6595
upperback -6.41011 0.523378 2.8934
thorax 0.211628 -0.135159 -3.4297
lowerneck -9.13373 13.9165 13.4026
upperneck 30.2165 19.823 -9.52518
head 14.2581 8.96989 -2.75642
rclavicle -8.94531e-015 -6.36111e-015
rhumerus -32.3127 3.11656 -76.5133
rradius 26.0247
rwrist -14.2139
rhand -23.5466 -26.0857
rfingers 7.12502
rthumb 2.91525 -56.0456
lclavicle -8.94531e-015 -6.36111e-015
lhumerus -43.905 4.79903 69.2609
lradius 37.7513
lwrist 35.3122
lhand -14.028 -4.24134
lfingers 7.12502
lthumb 12.1021 25.3887
rfemur -30.5252 11.7721 10.1249
rtibia 30.5618
rfoot -13.3031 -20.1475
rtoes -9.09914
lfemur -29.2897 -9.5752 -1.72893
ltibia 18.8986
lfoot 5.74189 6.17725
ltoes -20.2165
2564
root 2.51899 15.956 28.6237 -1308.83 -94.2411 1328.44
lowerback -12.4489 1.64626 11.5902
upperback -6.42772 0.473368 2.90593
thorax 0.228955 -0.158663 -3.38419
lowerneck -9.24209 13.8758 13.3104
upperneck 30.1815 19.7256 -9.40685
head 14.2217 8.92745 -2.71024
rclavicle -7.35503e-015 3.49861e-014
rhumerus -32.7181 2.96881 -76.1952
rradius 25.949
rwrist -13.9301
rhand -23.4298 -25.9889
rfingers 7.12502
rthumb 3.02808 -55.9472
lclavicle -7.35503e-015 3.49861e-014
lhumerus -43.7306 4.67821 69.4592
lradius 38.0704
lwrist 35.3145
lhand -14.0179 -4.40034
lfingers 7.12502
lthumb 12.1119 25.2291
rfemur -30.2627 11.704 10.2974
rtibia 30.2608
rfoot -13.2046 -20.1177
rtoes -9.45582
lfemur -29.1526 -9.8007 -1.22324
ltibia 18.775
lfoot 6.39529 6.19491
ltoes -19.1877
